<svg version="1.1" xmlns="http://www.w3.org/2000/svg" viewBox="0 0 778.6507431272591 393.2777777777778" width="1557.3014862545183" height="786.5555555555557">
  <!-- svg-source:excalidraw -->

  <defs>
    <style class="style-fonts">
      @font-face {
      font-family: "Virgil";
      src: url("https://excalidraw.com/Virgil.woff2");
      }
      @font-face {
      font-family: "Cascadia";
      src: url("https://excalidraw.com/Cascadia.woff2");
      }
    </style>
  </defs>
  <rect x="0" y="0" width="778.6507431272591" height="393.2777777777778" fill="#ffffff"></rect><g stroke-linecap="round" transform="translate(42.09274508855469 139.49712643678163) rotate(0 87.47594661700805 107.98754789272027)"><path d="M-0.07 -1.03 C45.73 -1.14, 88.23 -0.69, 176.47 -1.68 M0.3 -0.82 C68.45 -2.02, 136.02 -1.46, 173.96 -0.46 M174.8 1.49 C177.15 65.82, 174.24 134.17, 174.2 215.18 M174.61 -0.49 C175.97 56.55, 175.44 112.19, 175.79 215.66 M173.35 215.55 C131.61 216.02, 86.42 218.71, 0.29 217.24 M174.26 216.54 C135.84 215.41, 98.4 215.78, -0.69 216.39 M-0.74 217.22 C-0.99 156.43, -0.98 99.73, -1.58 0.55 M0.38 216.69 C0.15 142.11, -0.23 69.47, -0.78 -0.39" stroke="#000000" stroke-width="1" fill="none"></path></g><g stroke-linecap="round" transform="translate(10 10) rotate(0 379.3253715636296 186.6388888888889)"><path d="M32 0 M32 0 C277.98 0.51, 524.81 -0.37, 726.65 0 M32 0 C257.92 2.73, 483.42 2.46, 726.65 0 M726.65 0 C746.35 0.48, 757.26 9.86, 758.65 32 M726.65 0 C747.65 -2.27, 757.58 10.94, 758.65 32 M758.65 32 C759.21 136.63, 756.73 237.6, 758.65 341.28 M758.65 32 C757.4 116.08, 757.19 199.14, 758.65 341.28 M758.65 341.28 C757.53 362.7, 749.58 372.14, 726.65 373.28 M758.65 341.28 C759.93 364.82, 747.15 372.16, 726.65 373.28 M726.65 373.28 C584.77 371.31, 442.65 370.82, 32 373.28 M726.65 373.28 C475.07 374.95, 223.98 374.76, 32 373.28 M32 373.28 C11.8 372.21, 0.24 363.79, 0 341.28 M32 373.28 C11.79 371.69, 0.96 361.88, 0 341.28 M0 341.28 C2.46 232.68, 0.09 124.12, 0 32 M0 341.28 C2.28 256.51, 1.91 172.45, 0 32 M0 32 C1.63 9.82, 8.92 -1.72, 32 0 M0 32 C-0.79 8.61, 9.65 -0.92, 32 0" stroke="#000000" stroke-width="1" fill="none"></path></g><g stroke-linecap="round" transform="translate(541.6707905127605 142.6020543348202) rotate(0 87.47594661700805 107.98754789272027)"><path d="M0.05 -1.17 C52.34 0.62, 102.01 0.89, 176.91 1.51 M-0.7 -0.4 C57.6 -1.41, 115.02 -0.3, 175.29 -0.3 M173.43 -1.35 C176.04 62.2, 175.76 125.18, 175.86 214.75 M175.65 -0.5 C174.38 57.29, 173.58 112.48, 174.11 216.73 M173.49 215.39 C137.7 216.82, 99.24 214.94, -0.45 215.19 M175.07 216.57 C135.02 214.35, 94.52 214.72, 0.51 215.33 M-1.65 215.96 C-1.81 158.74, -0.8 105.33, -0.48 -0.24 M-0.76 215.23 C-1.83 141.1, -1.92 67.44, 0.55 0.05" stroke="#000000" stroke-width="1" fill="none"></path></g><g stroke-linecap="round" transform="translate(53.514132264012005 303.6258831570808) rotate(0 75.97246208635329 20.924618794970172)"><path d="M-0.48 -1.82 L151.43 -1.04 L152.79 43.42 L1.96 40.49" stroke="none" stroke-width="0" fill="#be4bdb"></path><path d="M0.49 1.52 C51.75 2.69, 108.82 2.4, 152.55 -1.64 M-0.14 -0.99 C48.77 0.73, 98.8 0.31, 151.86 0.85 M151.36 -0.86 C150.66 15.44, 152.62 31.13, 151.17 40.73 M152.5 0.96 C151.91 12.25, 151.32 26.34, 151.14 41.64 M153.18 42.14 C102.81 39.81, 50.69 40.62, -1.38 42.98 M152.44 41.16 C114.9 42.43, 77.52 42.1, -0.42 42.56 M-0.53 40.04 C1.02 30.13, -0.16 16.6, 0.86 1.63 M-0.34 40.96 C-0.08 30.67, 0.99 20.35, 0.65 -0.62" stroke="#000000" stroke-width="1" fill="none"></path></g><g transform="translate(101.98659435036507 314.05050195205104) rotate(0 27.5 10.5)"><text x="27.5" y="15" font-family="Virgil, Segoe UI Emoji" font-size="16px" fill="#000000" text-anchor="middle" style="white-space: pre;" direction="ltr">Domain</text></g><g stroke-linecap="round" transform="translate(52.87029783955131 249.22187429015844) rotate(0 75.97246208635329 20.924618794970172)"><path d="M-0.52 -1.04 L152.79 1.57 L153.9 40.49 L0.61 43.15" stroke="none" stroke-width="0" fill="#82c91e"></path><path d="M-1.68 1.8 C38.64 0.35, 73.96 -2.79, 152.43 -1.39 M-0.46 0.12 C39.81 1.2, 78.86 2.35, 152.83 -0.87 M151.03 -0.83 C152.86 7.91, 151.05 17.51, 152.03 43.45 M151.58 -0.49 C151.22 11.04, 151.38 20.15, 152.26 41.12 M153.21 40.26 C110.35 41.29, 68.28 43.2, -1.07 42.09 M152.36 41.53 C97.9 40.15, 42.42 41.51, -0.02 40.9 M0.62 42.62 C-0.44 29.06, 0.97 18.44, -0.85 -1.75 M-0.44 41.45 C0.77 32.94, 0.8 23.3, -0.24 -0.91" stroke="#000000" stroke-width="1" fill="none"></path></g><g transform="translate(92.84275992590437 259.64649308512867) rotate(0 36 10.5)"><text x="36" y="15" font-family="Virgil, Segoe UI Emoji" font-size="16px" fill="#000000" text-anchor="middle" style="white-space: pre;" direction="ltr">Contract</text></g><g stroke-linecap="round" transform="translate(52.87029783955131 191.2767760887025) rotate(0 75.97246208635329 20.924618794970172)"><path d="M0.84 1.57 L153.9 -1.36 L152.56 43.15 L0.69 41.33" stroke="none" stroke-width="0" fill="#fa5252"></path><path d="M1.96 1.51 C57.74 -3, 114.76 -2.76, 151.14 -0.29 M0.34 -0.3 C30.49 0.67, 62.05 -1.05, 151.17 -0.29 M152.98 -1.41 C150.98 9.64, 151.84 23.12, 150.81 42.96 M150.98 0.86 C150.99 16.36, 152.11 32.4, 151.65 42.47 M151.5 41.07 C102.78 41.77, 55.3 40.88, 1.18 42.83 M152.46 41.2 C116.43 42.07, 81.75 40.42, -0.01 41.58 M-0.55 41.58 C0.73 34.7, -0.98 22.55, -1.72 -0.69 M0.63 41.91 C0.84 32.41, -0.06 23.3, -0.26 -0.52" stroke="#000000" stroke-width="1" fill="none"></path></g><g transform="translate(86.84275992590437 201.70139488367272) rotate(0 42 10.5)"><text x="42" y="15" font-family="Virgil, Segoe UI Emoji" font-size="16px" fill="#000000" text-anchor="middle" style="white-space: pre;" direction="ltr">Application</text></g><g transform="translate(86.28110417051084 145.76313765344116) rotate(0 45 13)"><text x="0" y="18" font-family="Virgil, Segoe UI Emoji" font-size="20px" fill="#000000" text-anchor="start" style="white-space: pre;" direction="ltr">Module A</text></g><g transform="translate(582.943901760555 152.23369226193404) rotate(0 46 13)"><text x="0" y="18" font-family="Virgil, Segoe UI Emoji" font-size="20px" fill="#000000" text-anchor="start" style="white-space: pre;" direction="ltr">Module B</text></g><g stroke-linecap="round" transform="translate(554.2248601598139 306.7163070371555) rotate(0 75.97246208635329 20.924618794970172)"><path d="M1.3 0.69 L151.42 0.88 L152.17 43.16 L0 42.18" stroke="none" stroke-width="0" fill="#be4bdb"></path><path d="M-1.39 -0.8 C49.86 -2.34, 99.37 -0.13, 152.63 -0.6 M-0.87 -0.77 C44 -1.78, 88.12 -1.76, 152.46 -0.7 M153.54 -1.13 C152.82 12.86, 150.98 20.9, 150.02 43.57 M151.22 -0.29 C152.47 9.35, 152.49 17.62, 151.72 41.46 M152.18 43.03 C117.82 39.66, 82.57 40.4, 1.02 40.55 M151 41.84 C112.52 40.92, 73.94 42.21, -0.28 41.71 M-1.75 40.13 C-1.03 25.71, -1.23 12.34, 1.25 0.12 M-0.91 41.59 C-0.26 26.98, 1.04 12.25, -0.68 0.31" stroke="#000000" stroke-width="1" fill="none"></path></g><g transform="translate(602.6973222461675 317.14092583212573) rotate(0 27.5 10.5)"><text x="27.5" y="15" font-family="Virgil, Segoe UI Emoji" font-size="16px" fill="#000000" text-anchor="middle" style="white-space: pre;" direction="ltr">Domain</text></g><g stroke-linecap="round" transform="translate(553.5810257353533 252.31229817023313) rotate(0 75.97246208635329 20.924618794970172)"><path d="M-0.52 0.88 L152.17 1.31 L151.95 42.18 L-0.97 42.95" stroke="none" stroke-width="0" fill="#82c91e"></path><path d="M-0.29 -1.98 C48.3 0.85, 99.15 0.01, 151.77 1.7 M-0.29 -0.43 C58.62 0.76, 118.67 0.47, 151.56 -0.56 M153.06 1.92 C151.55 11.77, 150.36 27.2, 150.34 41.43 M152.56 0.15 C152.27 13.09, 151.42 27.37, 151.26 42.41 M152.93 40.47 C115.32 42.11, 78.03 41.45, -0.85 43.27 M151.68 40.95 C106.92 42.22, 60.99 41.7, 0.43 42.66 M-0.69 40.06 C-0.52 30.27, 1.62 20.41, 1.31 -1.24 M-0.52 42.27 C1.17 31.28, -0.3 19.06, 0.65 0.35" stroke="#000000" stroke-width="1" fill="none"></path></g><g transform="translate(593.5534878217068 262.73691696520314) rotate(0 36 10.5)"><text x="36" y="15" font-family="Virgil, Segoe UI Emoji" font-size="16px" fill="#000000" text-anchor="middle" style="white-space: pre;" direction="ltr">Contract</text></g><g stroke-linecap="round" transform="translate(553.5810257353533 194.3671999687772) rotate(0 75.97246208635329 20.924618794970172)"><path d="M0.22 1.31 L151.95 0.33 L150.98 42.95 L1.58 42.18" stroke="none" stroke-width="0" fill="#fa5252"></path><path d="M-0.93 0.24 C40.16 0.9, 78.77 3.2, 153.72 -1.75 M-0.46 -0.41 C34.34 -0.05, 67.26 0.09, 151.99 0.8 M151.22 -0.97 C150.26 11.9, 150.58 19.94, 152.58 40.39 M152.58 -0.8 C151.98 10.94, 151.51 23.23, 151.41 41.97 M152.78 41.21 C98.41 39.5, 41.99 42.22, -0.03 39.96 M152.26 42.23 C106.23 40.34, 61.49 41.29, -0.42 40.98 M-0.89 41.05 C1.4 33, 1.45 22.68, -0.48 -1.82 M0.79 42.83 C-0.46 30.68, 0.87 19.24, -0.26 0.44" stroke="#000000" stroke-width="1" fill="none"></path></g><g transform="translate(587.5534878217068 204.7918187637472) rotate(0 42 10.5)"><text x="42" y="15" font-family="Virgil, Segoe UI Emoji" font-size="16px" fill="#000000" text-anchor="middle" style="white-space: pre;" direction="ltr">Application</text></g><g transform="translate(194.41249302051597 27.763832972449222) rotate(0 184.5 23)"><text x="0" y="32" font-family="Virgil, Segoe UI Emoji" font-size="36px" fill="#000000" text-anchor="start" style="white-space: pre;" direction="ltr">Command Integration</text></g><g stroke-linecap="round" transform="translate(309.37103709484586 117.78581558104372) rotate(0 75.06813145349906 61.45928890929747)"><path d="M-1.32 0.78 L149.41 -0.18 L148.8 124.72 L-0.46 123.01" stroke="none" stroke-width="0" fill="#ced4da"></path><path d="M0.19 -0.76 C43.24 -1.96, 81.85 -1.6, 150.29 1.96 M-0.12 0.69 C51.76 -1.63, 101.72 -0.69, 149.98 -0.46 M149.69 0.67 C149.66 24.08, 149.62 52.03, 150.27 121.31 M149.82 0.65 C150.32 43.75, 151.05 87.4, 149.89 122.15 M151.86 123.25 C121.6 124.94, 91.27 124.36, -1.35 123.47 M150.3 123.03 C112.36 124.17, 73.29 124.12, -0.13 123.43 M1.81 121.67 C0.01 95.29, 1.22 71.71, -0.55 1.19 M0.74 122.9 C0.41 77.51, -0.62 31.99, 0.7 -0.98" stroke="#000000" stroke-width="1" fill="none"></path></g><g transform="translate(326.6598642252868 164.91728674533306) rotate(0 52.5 10.5)"><text x="0" y="15" font-family="Virgil, Segoe UI Emoji" font-size="16px" fill="#000000" text-anchor="start" style="white-space: pre;" direction="ltr">Message Bus</text></g><g stroke-linecap="round"><g transform="translate(210.19891879947568 187.84540798166358) rotate(0 47.91040995922083 -11.713235189160685)"><path d="M1.49 -0.04 C35.74 -7.19, 68.9 -14.58, 95.91 -23.39 M-0.09 -0.67 C22.94 -4.9, 44.2 -10.49, 94.06 -22.28" stroke="#000000" stroke-width="1" fill="none"></path></g><g transform="translate(210.19891879947568 187.84540798166358) rotate(0 47.91040995922083 -11.713235189160685)"><path d="M70.51 -5.79 C78.86 -11.1, 86.13 -16.66, 95.46 -24.23 M68.94 -6.42 C75.72 -9.76, 80.72 -14.2, 93.61 -23.13" stroke="#000000" stroke-width="1" fill="none"></path></g><g transform="translate(210.19891879947568 187.84540798166358) rotate(0 47.91040995922083 -11.713235189160685)"><path d="M65.75 -25.75 C75.85 -23.62, 84.88 -21.74, 95.46 -24.23 M64.17 -26.38 C72.15 -25.04, 78.27 -24.8, 93.61 -23.13" stroke="#000000" stroke-width="1" fill="none"></path></g></g><mask></mask><g stroke-linecap="round"><g transform="translate(550.305099236198 190.82177875056414) rotate(0 -42.519302530663026 -10.289616829681222)"><path d="M-0.69 -0.89 C-21.92 -4.79, -48.73 -9.77, -84.35 -20.38 M-0.69 -0.2 C-31.82 -8.24, -65.82 -14.71, -83.47 -19.82" stroke="#000000" stroke-width="1" fill="none"></path></g><g transform="translate(550.305099236198 190.82177875056414) rotate(0 -42.519302530663026 -10.289616829681222)"><path d="M-54.31 -23.79 C-60.4 -21.71, -72.13 -20.27, -84.04 -20.34 M-54.31 -23.1 C-64.39 -22.34, -77.54 -19.94, -83.15 -19.78" stroke="#000000" stroke-width="1" fill="none"></path></g><g transform="translate(550.305099236198 190.82177875056414) rotate(0 -42.519302530663026 -10.289616829681222)"><path d="M-59.32 -3.89 C-64.06 -7.41, -74.4 -11.54, -84.04 -20.34 M-59.32 -3.19 C-67.65 -10.14, -78.88 -15.43, -83.15 -19.78" stroke="#000000" stroke-width="1" fill="none"></path></g></g><mask></mask><g transform="translate(238.73146776996805 150.38079578180373) rotate(0 15.665843146012776 7.0226193413160445)"><text x="0" y="9.045238682632137" font-family="Virgil, Segoe UI Emoji" font-size="10.804029755870875px" fill="#000000" text-anchor="start" style="white-space: pre;" direction="ltr">Event</text></g><g stroke-linecap="round" transform="translate(235.35871906814464 122.52577740445963) rotate(0 16.87778589666209 11.199278492177598)"><path d="M0 0 L33.76 0 L33.76 22.4 L0 22.4" stroke="none" stroke-width="0" fill="#fab005"></path><path d="M0 0 C8.49 0, 16.98 0, 33.76 0 M0 0 C10.51 0, 21.02 0, 33.76 0 M33.76 0 C33.76 6.1, 33.76 12.2, 33.76 22.4 M33.76 0 C33.76 5.03, 33.76 10.06, 33.76 22.4 M33.76 22.4 C26.09 22.4, 18.43 22.4, 0 22.4 M33.76 22.4 C23.82 22.4, 13.88 22.4, 0 22.4 M0 22.4 C0 14.47, 0 6.55, 0 0 M0 22.4 C0 14.28, 0 6.16, 0 0" stroke="#000000" stroke-width="2" fill="none"></path></g><g stroke-linecap="round"><g transform="translate(235.84648661419965 124.60152536458418) rotate(0 8.300813586803542 6.462394932597249)"><path d="M0 0 C5.77 4.49, 11.53 8.98, 16.6 12.92 M0 0 C4.23 3.3, 8.47 6.59, 16.6 12.92" stroke="#000000" stroke-width="2" fill="none"></path></g></g><mask></mask><g stroke-linecap="round"><g transform="translate(253.06143975383952 138.1439063819986) rotate(0 7.914783101981129 -7.895652134727925)"><path d="M0 0 C5.86 -5.84, 11.71 -11.68, 15.83 -15.79 M0 0 C6.17 -6.16, 12.35 -12.32, 15.83 -15.79" stroke="#000000" stroke-width="2" fill="none"></path></g></g><mask></mask><g transform="translate(502.942132434466 154.52299751207113) rotate(0 15.665843146012776 7.0226193413160445)"><text x="0" y="9.045238682632137" font-family="Virgil, Segoe UI Emoji" font-size="10.804029755870875px" fill="#000000" text-anchor="start" style="white-space: pre;" direction="ltr">Event</text></g><g stroke-linecap="round" transform="translate(499.56938373264234 126.66797913472703) rotate(0 16.877785896662033 11.199278492177598)"><path d="M0 0 L33.76 0 L33.76 22.4 L0 22.4" stroke="none" stroke-width="0" fill="#fab005"></path><path d="M0 0 C12.25 0, 24.51 0, 33.76 0 M0 0 C10.43 0, 20.85 0, 33.76 0 M33.76 0 C33.76 6.31, 33.76 12.62, 33.76 22.4 M33.76 0 C33.76 5.78, 33.76 11.56, 33.76 22.4 M33.76 22.4 C23.4 22.4, 13.05 22.4, 0 22.4 M33.76 22.4 C24.86 22.4, 15.96 22.4, 0 22.4 M0 22.4 C0 14.8, 0 7.21, 0 0 M0 22.4 C0 16.48, 0 10.56, 0 0" stroke="#000000" stroke-width="2" fill="none"></path></g><g stroke-linecap="round"><g transform="translate(500.0571512786976 128.7437270948518) rotate(0 8.300813586803486 6.462394932597249)"><path d="M0 0 C5.12 3.99, 10.24 7.97, 16.6 12.92 M0 0 C5.75 4.48, 11.5 8.95, 16.6 12.92" stroke="#000000" stroke-width="2" fill="none"></path></g></g><mask></mask><g stroke-linecap="round"><g transform="translate(517.2721044183374 142.2861081122661) rotate(0 7.914783101981186 -7.895652134727925)"><path d="M0 0 C3.62 -3.61, 7.23 -7.22, 15.83 -15.79 M0 0 C5.21 -5.2, 10.42 -10.4, 15.83 -15.79" stroke="#000000" stroke-width="2" fill="none"></path></g></g><mask></mask><g transform="translate(172.79561439530266 277.8778378558841) rotate(0 15 5.5)"><text x="0" y="8" font-family="Virgil, Segoe UI Emoji" font-size="8.249593576946138px" fill="#000000" text-anchor="start" style="white-space: pre;" direction="ltr">Schema</text></g><g stroke-linecap="round" transform="translate(170.22029697616108 256.60868311604395) rotate(0 12.887309390324049 8.551392212271082)"><path d="M0 0 L25.77 0 L25.77 17.1 L0 17.1" stroke="none" stroke-width="0" fill="#fab005"></path><path d="M0 0 C10.09 0, 20.18 0, 25.77 0 M0 0 C9.04 0, 18.09 0, 25.77 0 M25.77 0 C25.77 6.29, 25.77 12.58, 25.77 17.1 M25.77 0 C25.77 6.16, 25.77 12.32, 25.77 17.1 M25.77 17.1 C17.05 17.1, 8.33 17.1, 0 17.1 M25.77 17.1 C17.45 17.1, 9.12 17.1, 0 17.1 M0 17.1 C0 11.54, 0 5.97, 0 0 M0 17.1 C0 11.21, 0 5.32, 0 0" stroke="#000000" stroke-width="2" fill="none"></path></g><g stroke-linecap="round"><g transform="translate(170.5927398614458 258.19365441158277) rotate(0 6.338221940929998 4.9344673175000935)"><path d="M0 0 C2.78 2.16, 5.56 4.32, 12.68 9.87 M0 0 C4.66 3.63, 9.31 7.25, 12.68 9.87" stroke="#000000" stroke-width="2" fill="none"></path></g></g><mask></mask><g stroke-linecap="round"><g transform="translate(183.73749881317235 268.5341608691026) rotate(0 6.043462052253744 -6.028854289396804)"><path d="M0 0 C2.71 -2.71, 5.43 -5.41, 12.09 -12.06 M0 0 C4.5 -4.49, 9 -8.98, 12.09 -12.06" stroke="#000000" stroke-width="2" fill="none"></path></g></g><mask></mask><g stroke-linecap="round"><g transform="translate(550.0801850171943 214.51185926976382) rotate(0 -172.7166495115206 32.43490398283444)"><path d="M1.63 -0.89 C-23.88 11.85, -48.67 28.79, -104.59 57.69 M-104.28 59.68 C-192.3 58.03, -280.87 62.24, -347.07 65.76" stroke="#000000" stroke-width="1.5" fill="none" stroke-dasharray="8 9"></path></g><g transform="translate(550.0801850171943 214.51185926976382) rotate(0 -172.7166495115206 32.43490398283444)"><path d="M-317.78 53.25 C-325.74 55.17, -332.57 61.04, -348.2 65.09" stroke="#000000" stroke-width="1.5" fill="none"></path></g><g transform="translate(550.0801850171943 214.51185926976382) rotate(0 -172.7166495115206 32.43490398283444)"><path d="M-316.78 73.74 C-325.16 70.81, -332.22 71.82, -348.2 65.09" stroke="#000000" stroke-width="1.5" fill="none"></path></g></g><mask></mask></svg>