<svg version="1.1" xmlns="http://www.w3.org/2000/svg" viewBox="0 0 778.6507431272591 393.2777777777778" width="1557.3014862545183" height="786.5555555555557">
  <!-- svg-source:excalidraw -->

  <defs>
    <style class="style-fonts">
      @font-face {
      font-family: "Virgil";
      src: url("https://excalidraw.com/Virgil.woff2");
      }
      @font-face {
      font-family: "Cascadia";
      src: url("https://excalidraw.com/Cascadia.woff2");
      }
    </style>
  </defs>
  <rect x="0" y="0" width="778.6507431272591" height="393.2777777777778" fill="#ffffff"></rect><g stroke-linecap="round" transform="translate(42.09274508855469 139.00691897086153) rotate(0 87.47594661700805 107.98754789272027)"><path d="M-1.92 1.48 C43.85 0.43, 85.57 -0.41, 176.35 0.03 M-0.85 0.94 C57.16 -0.85, 113.79 -0.87, 174.74 -0.86 M173.45 0.67 C174.85 83.01, 172.81 163.4, 175.23 216.96 M174.92 -0.85 C173.7 77.75, 174.84 153.45, 174.6 215.53 M175.69 214.16 C105.95 215.72, 37.05 216.55, -1.83 214.58 M175.45 215.63 C135.89 218.06, 95.93 218.37, 0.7 216.22 M0.44 214.5 C0.59 146.95, -0.32 76.06, -0.99 -0.99 M0.63 215.98 C0.8 162.25, 1.57 107.13, 0.44 -0.4" stroke="#000000" stroke-width="1" fill="none"></path></g><g stroke-linecap="round" transform="translate(10 10) rotate(0 379.3253715636296 186.6388888888889)"><path d="M32 0 M32 0 C185.7 3.08, 338.6 2.65, 726.65 0 M32 0 C244.41 -0.43, 456.97 -0.38, 726.65 0 M726.65 0 C749.87 -0.41, 760.27 8.77, 758.65 32 M726.65 0 C749.8 -0.49, 756.68 12.49, 758.65 32 M758.65 32 C761.31 109.51, 761.65 184.62, 758.65 341.28 M758.65 32 C759.41 116.84, 759.43 202.04, 758.65 341.28 M758.65 341.28 C756.69 360.86, 749.52 374.14, 726.65 373.28 M758.65 341.28 C756.81 361.69, 746.8 375.56, 726.65 373.28 M726.65 373.28 C452.1 374.63, 178.36 375, 32 373.28 M726.65 373.28 C545.21 371.28, 364.67 371.54, 32 373.28 M32 373.28 C9.98 374.25, 1.38 362.74, 0 341.28 M32 373.28 C12.96 374.89, 0.56 363.15, 0 341.28 M0 341.28 C0.93 247.86, 2.83 153.16, 0 32 M0 341.28 C0.9 251.39, 0.87 162.83, 0 32 M0 32 C0 10.06, 11.72 1.17, 32 0 M0 32 C-1.27 11.84, 9.62 -0.69, 32 0" stroke="#000000" stroke-width="1" fill="none"></path></g><g stroke-linecap="round" transform="translate(548.6651398649775 140.55754701285196) rotate(0 87.47594661700799 107.98754789272027)"><path d="M1.04 0.96 C57.66 -1.18, 116.81 -1.26, 175.51 -1.9 M-0.21 0.81 C68.16 -0.86, 138.01 -2.5, 175.74 -0.52 M175.83 1.09 C172.17 84.86, 173.61 171.59, 175.95 215.52 M174.19 0.67 C175.27 76.87, 174.54 154.69, 175.82 216.8 M175.76 214.36 C110.62 213.6, 40.99 212.99, -1.48 215.64 M175.44 216.67 C108.56 216.37, 42.75 215.62, 0.23 216.01 M0.66 216.81 C-0.73 171.79, -1.47 126.99, -0.86 -0.98 M-0.26 216.44 C-0.84 162.38, -0.91 109.35, -0.26 0.26" stroke="#000000" stroke-width="1" fill="none"></path></g><g stroke-linecap="round" transform="translate(53.514132264012005 303.13567569116094) rotate(0 75.97246208635329 20.924618794970115)"><path d="M-1.52 0.32 L152.57 1.45 L150.31 42.79 L-0.8 42.67" stroke="none" stroke-width="0" fill="#be4bdb"></path><path d="M0.96 -0.04 C31.12 0.61, 62.05 -0.23, 150.04 1.9 M0.81 -0.95 C33.51 0.1, 64.59 1.11, 151.43 0.95 M153.19 -1.33 C151.6 9.28, 153.24 19.07, 151.42 43.03 M152.71 0.43 C150.74 12.02, 151.02 25.83, 152.89 42.63 M150.33 43.58 C99.97 40.64, 48.17 40.99, -0.33 43.45 M152.64 41.91 C99.85 43.28, 46.02 42.82, 0.04 40.89 M0.96 41.56 C0.14 27.1, -0.78 13.64, -1.13 -1.08 M0.53 42.43 C-0.55 26.8, -0.46 10.44, 0.29 0.63" stroke="#000000" stroke-width="1" fill="none"></path></g><g transform="translate(101.98659435036552 313.56029448613117) rotate(0 27.5 10.5)"><text x="27.5" y="15" font-family="Virgil, Segoe UI Emoji" font-size="16px" fill="#000000" text-anchor="middle" style="white-space: pre;" direction="ltr">Domain</text></g><g stroke-linecap="round" transform="translate(52.87029783955131 248.73166682423835) rotate(0 75.97246208635329 20.924618794970115)"><path d="M0.63 1.45 L150.31 0.94 L151.15 42.67 L1.51 43" stroke="none" stroke-width="0" fill="#82c91e"></path><path d="M0.11 1.4 C53.55 0.59, 105.12 1.93, 150.25 1.88 M0.79 -0.21 C41.59 2.23, 84.37 2.39, 151.09 0.38 M151.44 0.32 C153.34 15.79, 151.68 30.49, 151.88 39.89 M151.15 -0.4 C151.75 9.89, 153.21 18.57, 152.31 40.94 M151.16 40.02 C98.8 41.69, 48.1 44.76, 0.99 41.16 M152.94 42.55 C99.24 42.18, 46.09 40.98, 0.25 41.01 M-0.21 40.72 C-1.34 26.73, -1.33 12.5, 1.43 0 M-0.55 42.36 C-0.68 30.26, 0.07 19.9, -0.76 0.16" stroke="#000000" stroke-width="1" fill="none"></path></g><g transform="translate(92.84275992590483 259.1562856192086) rotate(0 36 10.5)"><text x="36" y="15" font-family="Virgil, Segoe UI Emoji" font-size="16px" fill="#000000" text-anchor="middle" style="white-space: pre;" direction="ltr">Contract</text></g><g stroke-linecap="round" transform="translate(52.87029783955131 190.7865686227824) rotate(0 75.97246208635329 20.924618794970115)"><path d="M-1.64 0.94 L151.15 0.82 L153.46 43 L-0.82 40.23" stroke="none" stroke-width="0" fill="#fa5252"></path><path d="M0.03 0.56 C43.36 0.84, 88.83 0.82, 151.53 1.62 M-0.86 0.79 C30.65 1.27, 61.49 0.71, 152.45 0.62 M153.08 1.14 C151.32 10.96, 151.77 17.59, 150.2 43.39 M151.43 0.99 C152.55 15.14, 151.98 27.82, 152.35 41.04 M150.55 40.37 C92.86 42.06, 35.42 39.77, 0.97 43.23 M152.19 42.08 C105.45 41.95, 59.12 42.07, 0.38 42.33 M-1.14 40.87 C-1.08 28.82, 1.48 17.95, -0.6 1.05 M-0.46 41.55 C0.53 27.48, -0.53 12.02, 0.31 0.73" stroke="#000000" stroke-width="1" fill="none"></path></g><g transform="translate(86.84275992590483 201.21118741775263) rotate(0 42 10.5)"><text x="42" y="15" font-family="Virgil, Segoe UI Emoji" font-size="16px" fill="#000000" text-anchor="middle" style="white-space: pre;" direction="ltr">Application</text></g><g transform="translate(86.28110417051084 145.27293018752107) rotate(0 45 13)"><text x="0" y="18" font-family="Virgil, Segoe UI Emoji" font-size="20px" fill="#000000" text-anchor="start" style="white-space: pre;" direction="ltr">Module A</text></g><g transform="translate(589.938251112772 150.1891849399658) rotate(0 46 13)"><text x="0" y="18" font-family="Virgil, Segoe UI Emoji" font-size="20px" fill="#000000" text-anchor="start" style="white-space: pre;" direction="ltr">Module B</text></g><g stroke-linecap="round" transform="translate(561.219209512031 304.67179971518726) rotate(0 75.97246208635329 20.924618794970115)"><path d="M1.51 1.15 L151.13 -1.62 L152.3 43.49 L0.08 40.89" stroke="none" stroke-width="0" fill="#be4bdb"></path><path d="M-1.69 1.88 C49.41 0.17, 97.75 0.14, 151.52 -1.72 M-0.86 0.38 C58.14 -0.82, 114.6 -1.69, 152.1 0.57 M151.88 -1.96 C150.09 16.47, 152.7 28.27, 151.14 40.82 M152.31 -0.91 C152.75 15.89, 153.21 33.01, 151.03 41.15 M152.93 41.16 C118.57 44.45, 83.38 45.05, 1.4 42.34 M152.2 41.01 C103.17 40.87, 53.5 40.28, -0.56 41.28 M1.43 41.85 C-0.37 32.4, 1.4 19.75, 1.02 -0.91 M-0.76 42.01 C0.19 31.28, -0.94 19.72, -0.4 0.41" stroke="#000000" stroke-width="1" fill="none"></path></g><g transform="translate(609.6916715983845 315.0964185101575) rotate(0 27.5 10.5)"><text x="27.5" y="15" font-family="Virgil, Segoe UI Emoji" font-size="16px" fill="#000000" text-anchor="middle" style="white-space: pre;" direction="ltr">Domain</text></g><g stroke-linecap="round" transform="translate(560.5753750875703 250.26779084826512) rotate(0 75.97246208635329 20.924618794970115)"><path d="M-0.82 -1.62 L152.3 1.65 L152.02 40.89 L-1.01 43.84" stroke="none" stroke-width="0" fill="#82c91e"></path><path d="M-0.41 1.62 C58.13 0.15, 119.62 -3.15, 153.53 -1.03 M0.5 0.62 C59.35 -0.83, 120.18 -0.02, 152.51 -0.26 M150.2 1.54 C152.8 13.43, 151.13 29.03, 153.93 43.73 M152.35 -0.81 C152.97 15.41, 151.18 30.91, 151.21 41.68 M152.91 43.23 C94.36 43.32, 37.92 41.82, 0.47 41.93 M152.32 42.33 C120.85 40.46, 89.48 40, -0.49 41.29 M-0.6 42.9 C0.87 30.45, 0.72 20.35, -0.6 0.59 M0.31 42.58 C-0.5 27.14, -0.08 11.9, 0.76 0.57" stroke="#000000" stroke-width="1" fill="none"></path></g><g transform="translate(600.5478371739238 260.6924096432349) rotate(0 36 10.5)"><text x="36" y="15" font-family="Virgil, Segoe UI Emoji" font-size="16px" fill="#000000" text-anchor="middle" style="white-space: pre;" direction="ltr">Contract</text></g><g stroke-linecap="round" transform="translate(560.5753750875703 192.32269264680917) rotate(0 75.97246208635329 20.924618794970115)"><path d="M0.36 1.65 L152.02 -0.96 L150.94 43.84 L0.05 41.37" stroke="none" stroke-width="0" fill="#fa5252"></path><path d="M-1.9 1.58 C59.45 -2.95, 121.34 -2.26, 153.84 -1.71 M-0.66 -0.25 C51.57 -0.38, 103.38 -1.2, 152.54 -0.03 M152.81 -1.6 C150.78 7.44, 153.56 18.81, 153.5 42.59 M152.81 -0.39 C151.2 8.06, 151.38 17.34, 152.74 42.34 M152.07 43.84 C112.96 43.39, 71.65 42.98, -1.93 42.36 M151.8 41.74 C118.62 42.01, 85.94 42.02, -0.54 42.57 M1.17 40.75 C1.14 28.38, -0.47 17.32, 1.25 -1.52 M-0.82 42.32 C-0.53 29.04, 0.62 15.98, -0.41 -0.81" stroke="#000000" stroke-width="1" fill="none"></path></g><g transform="translate(594.5478371739238 202.74731144177895) rotate(0 42 10.5)"><text x="42" y="15" font-family="Virgil, Segoe UI Emoji" font-size="16px" fill="#000000" text-anchor="middle" style="white-space: pre;" direction="ltr">Application</text></g><g transform="translate(225.4984901414798 25.71932565048087) rotate(0 158.5 23)"><text x="0" y="32" font-family="Virgil, Segoe UI Emoji" font-size="36px" fill="#000000" text-anchor="start" style="white-space: pre;" direction="ltr">Query Integration</text></g><g stroke-linecap="round" transform="translate(265.13749886288997 251.6158050024926) rotate(0 58.5 17)"><path d="M-1.63 0.95 L118.67 0.51 L115.4 33.64 L-1.76 33.55" stroke="none" stroke-width="0" fill="#fab005"></path><path d="M-1.53 -0.12 C35.41 -2.62, 66.26 0.64, 118.75 -0.68 M-0.01 0.34 C37.48 -0.07, 75.64 -0.38, 117.1 -0.33 M118.99 -1.82 C116.76 10.78, 115.21 21.82, 117.24 33.65 M117.19 0.33 C116.91 9.3, 117.61 18.22, 116.29 33.71 M116.07 35.67 C84.21 35.35, 48.01 32.87, 1.37 34.49 M117.1 33.09 C89.91 34.66, 61.74 35.34, 0.97 34.93 M1.31 32.34 C1.94 24.13, -1.39 10.02, -1.07 0.26 M0.58 33.41 C-0.06 26.66, -0.43 20.11, -0.22 -0.19" stroke="#000000" stroke-width="1" fill="none"></path></g><g transform="translate(272.63749886288997 258.1158050024926) rotate(0 51 10.5)"><text x="51" y="15" font-family="Virgil, Segoe UI Emoji" font-size="16px" fill="#000000" text-anchor="middle" style="white-space: pre;" direction="ltr">QueryFacade</text></g><g stroke-linecap="round" transform="translate(260.56032011410434 155.20219552343133) rotate(0 73.5 17)"><path d="M0.96 -0.6 L146.67 0.68 L146.49 32.46 L-0.78 33.44" stroke="none" stroke-width="0" fill="#fd7e14"></path><path d="M-1.49 1.08 C54.61 -0.63, 108.34 0.81, 148.71 1.06 M-0.65 0.44 C51.99 0.7, 103.36 0.05, 147.38 -0.23 M147.31 0.13 C147.72 12.18, 145.52 26.78, 147.1 35.81 M146.34 0.25 C146.87 7.66, 146.47 16.91, 147.64 33.66 M145.12 32.59 C113.72 31.96, 84.68 33.24, 0.28 33.55 M146.57 34.1 C90.82 33.93, 34.31 34.12, -0.36 34.04 M-0.3 34.52 C0.89 21.53, -1.96 12.34, -0.62 0.6 M-0.23 33.05 C0.99 21.14, -0.4 8.37, -0.19 -0.76" stroke="#000000" stroke-width="1" fill="none"></path></g><g transform="translate(267.56032011410434 161.70219552343133) rotate(0 66.5 10.5)"><text x="66.5" y="15" font-family="Virgil, Segoe UI Emoji" font-size="16px" fill="#000000" text-anchor="middle" style="white-space: pre;" direction="ltr">QueryFacadeImpl</text></g><g stroke-linecap="round"><g transform="translate(320.7620526245414 194.26153148983735) rotate(0 -1.1931101687783894 26.438929706680824)"><path d="M-0.89 1.37 C-1.21 14.42, -2.55 26.99, -1.26 51.24 M-0.51 0.51 C0.46 16.22, 0.42 32.3, -2.45 52.37" stroke="#000000" stroke-width="1" fill="none"></path></g><g transform="translate(320.7620526245414 194.26153148983735) rotate(0 -1.1931101687783894 26.438929706680824)"><path d="M-9.58 28.25 C-7.93 34.42, -7.28 40.12, -2.13 51.16 M-9.2 27.39 C-5.99 34.71, -3.57 42.32, -3.32 52.28" stroke="#000000" stroke-width="1" fill="none"></path></g><g transform="translate(320.7620526245414 194.26153148983735) rotate(0 -1.1931101687783894 26.438929706680824)"><path d="M8.26 30.2 C5.36 35.89, 1.47 41.09, -2.13 51.16 M8.64 29.34 C6.24 35.9, 3.06 42.9, -3.32 52.28" stroke="#000000" stroke-width="1" fill="none"></path></g></g><mask></mask><g stroke-linecap="round"><g transform="translate(555.8305261535286 216.59448856071617) rotate(0 -83.10831027239317 25.491185796040895)"><path d="M0.67 1.58 C-43.64 14.27, -88.81 30.33, -165.81 50.52 M-0.37 -0.93 C-63.15 20.44, -127.14 40.63, -166.89 51.91" stroke="#000000" stroke-width="1" fill="none"></path></g><g transform="translate(555.8305261535286 216.59448856071617) rotate(0 -83.10831027239317 25.491185796040895)"><path d="M-142.11 35.63 C-147.71 38.18, -154.08 45.13, -166.52 51.21 M-143.15 33.13 C-151.78 40.46, -161.69 47.95, -167.59 52.6" stroke="#000000" stroke-width="1" fill="none"></path></g><g transform="translate(555.8305261535286 216.59448856071617) rotate(0 -83.10831027239317 25.491185796040895)"><path d="M-136.27 55.31 C-143.53 52.53, -151.49 54.1, -166.52 51.21 M-137.31 52.8 C-148.14 52.7, -160.26 52.7, -167.59 52.6" stroke="#000000" stroke-width="1" fill="none"></path></g></g><mask></mask><g stroke-linecap="round"><g transform="translate(208.76364028207468 268.7730663096977) rotate(0 23.8105485275114 -0.09761832989886443)"><path d="M-1.3 0.09 C10.37 -1.5, 20.75 1.21, 48.92 -0.18" stroke="#000000" stroke-width="1.5" fill="none" stroke-dasharray="8 9"></path></g><g transform="translate(208.76364028207468 268.7730663096977) rotate(0 23.8105485275114 -0.09761832989886443)"><path d="M24.28 8.87 C30.4 5.22, 35.24 6.07, 47.85 -0.36" stroke="#000000" stroke-width="1.5" fill="none"></path></g><g transform="translate(208.76364028207468 268.7730663096977) rotate(0 23.8105485275114 -0.09761832989886443)"><path d="M23.98 -8.23 C30.2 -8.32, 35.1 -3.92, 47.85 -0.36" stroke="#000000" stroke-width="1.5" fill="none"></path></g></g><mask></mask><g stroke-linecap="round"><g transform="translate(210.23426267983496 207.9873405356011) rotate(0 24.5938680457798 -16.230827805538866)"><path d="M1.77 -0.96 C9.75 -5.24, 20.01 -16.27, 47.42 -31.5" stroke="#000000" stroke-width="1.5" fill="none" stroke-dasharray="8 9"></path></g><g transform="translate(210.23426267983496 207.9873405356011) rotate(0 24.5938680457798 -16.230827805538866)"><path d="M31.68 -10.49 C33.45 -12.53, 37.42 -21.12, 49.25 -30.15" stroke="#000000" stroke-width="1.5" fill="none"></path></g><g transform="translate(210.23426267983496 207.9873405356011) rotate(0 24.5938680457798 -16.230827805538866)"><path d="M21.65 -26.88 C25.79 -25.18, 32 -30.1, 49.25 -30.15" stroke="#000000" stroke-width="1.5" fill="none"></path></g></g><mask></mask></svg>