<svg version="1.1" xmlns="http://www.w3.org/2000/svg" viewBox="0 0 778.6507431272591 393.2777777777778" width="1557.3014862545183" height="786.5555555555557">
  <!-- svg-source:excalidraw -->

  <defs>
    <style class="style-fonts">
      @font-face {
        font-family: "Virgil";
        src: url("https://excalidraw.com/Virgil.woff2");
      }
      @font-face {
        font-family: "Cascadia";
        src: url("https://excalidraw.com/Cascadia.woff2");
      }
    </style>
  </defs>
  <rect x="0" y="0" width="778.6507431272591" height="393.2777777777778" fill="#ffffff"></rect><g stroke-linecap="round" transform="translate(42.09274508855469 139.49712643678163) rotate(0 87.47594661700805 107.98754789272027)"><path d="M-0.09 1.73 C70.86 2.63, 138.11 2.57, 173.98 -1.95 M0.4 0.58 C40.12 -1.07, 80.79 -1.02, 174.01 0.53 M173.41 -0.98 C172.3 49.18, 173.65 97.95, 175.32 217.17 M174.76 0.61 C174.88 48.86, 175.52 98.43, 174.48 216.78 M174.11 216.11 C139.96 217.44, 100.96 215.86, -1.37 217.38 M174.78 215.05 C105.93 213.33, 37.92 213.49, 0.82 216.53 M0.64 214.67 C0.28 141.2, -1.75 66.99, -1.01 -1.25 M0.17 215.98 C-1.69 157.02, -1.71 96.41, -0.54 0.53" stroke="#000000" stroke-width="1" fill="none"></path></g><g stroke-linecap="round" transform="translate(10 10) rotate(0 379.3253715636296 186.6388888888889)"><path d="M32 0 M32 0 C254.99 0.43, 476.47 0.14, 726.65 0 M32 0 C283.14 1.96, 533.39 1.94, 726.65 0 M726.65 0 C747.73 1.87, 757.61 10.66, 758.65 32 M726.65 0 C750.06 0.7, 756.91 9.97, 758.65 32 M758.65 32 C757.21 152.41, 758.79 269.61, 758.65 341.28 M758.65 32 C760.11 124.26, 760.57 217.37, 758.65 341.28 M758.65 341.28 C759.81 362.51, 746.86 373.35, 726.65 373.28 M758.65 341.28 C758.97 361.39, 748.56 374.58, 726.65 373.28 M726.65 373.28 C522.14 376.63, 318.18 375.62, 32 373.28 M726.65 373.28 C522.82 375.01, 318.46 374.8, 32 373.28 M32 373.28 C10.5 374.47, -1.38 362.09, 0 341.28 M32 373.28 C11.88 371.79, -1.44 364.87, 0 341.28 M0 341.28 C1.36 231.59, 0.66 118.51, 0 32 M0 341.28 C-1.41 258.95, -1.84 175.67, 0 32 M0 32 C1.81 12.54, 11.62 -1.75, 32 0 M0 32 C0.9 12.66, 9.46 1.46, 32 0" stroke="#000000" stroke-width="1" fill="none"></path></g><g transform="translate(340.17424242424227 20.45202020202018) rotate(0 49 23)"><text x="0" y="32" font-family="Virgil, Segoe UI Emoji" font-size="36px" fill="#000000" text-anchor="start" style="white-space: pre;" direction="ltr">PROX</text></g><g stroke-linecap="round" transform="translate(300.1034184623579 136.13149972632743) rotate(0 87.47594661700805 107.98754789272027)"><path d="M-0.63 -0.52 C37.33 0.35, 75.25 -2.22, 173.28 1.96 M-0.04 0.55 C52.94 0.26, 107.31 0.54, 175.17 0.64 M176.08 -0.73 C173.39 52.02, 174.14 101.75, 174.55 217.47 M175.45 0.05 C173.93 67.32, 174.86 134.96, 174.45 216.26 M175.35 217.76 C126.28 218.24, 78.18 217.69, 1.79 217.8 M174.88 216.01 C136.99 216.2, 100.3 216.1, 0.29 216.89 M-0.01 216.43 C0.01 169.79, 0 126.28, -0.17 1.63 M-0.04 215.34 C-2.27 144.23, -1.82 73.57, -0.1 -0.54" stroke="#000000" stroke-width="1" fill="none"></path></g><g stroke-linecap="round" transform="translate(556.4670548259943 133.40422699905469) rotate(0 87.47594661700799 107.98754789272027)"><path d="M-0.21 1.4 C69.91 0.12, 134.5 -3.04, 174.9 -0.14 M-0.2 0.17 C53.33 0.45, 105.19 -0.95, 175.5 -0.01 M174.05 0.92 C173.82 72, 174.51 142.47, 174.96 215.9 M174.97 0.15 C173.95 48.66, 173.96 98.97, 175.5 215.33 M175.02 217.63 C111.75 215.57, 43.8 214.35, 0.52 216.39 M174.62 215.41 C138.09 214.98, 100.02 215.38, -0.18 215.04 M-1.58 215.38 C-0.96 129.19, -0.54 43.85, -0.43 0.33 M-0.13 216.11 C0.41 158.1, -0.75 98.84, 0.57 -0.41" stroke="#000000" stroke-width="1" fill="none"></path></g><g stroke-linecap="round" transform="translate(53.51413226401155 303.6258831570809) rotate(0 75.97246208635329 20.924618794970172)"><path d="M1.88 -0.56 L151.53 -1.8 L151.61 40.42 L-0.51 43.46" stroke="none" stroke-width="0" fill="#be4bdb"></path><path d="M0.24 -0.69 C50.41 0.85, 96.94 -1.37, 152.64 0.07 M-0.98 -0.91 C48.49 1.64, 98.1 0.49, 152.57 0.29 M152.15 -1.69 C150.45 16.78, 154.29 32.76, 150.06 42.46 M152.15 -0.08 C151.89 11.83, 151.8 21.75, 152.22 42.47 M150.91 43.14 C97 44.43, 44.96 43.13, 0.44 42.13 M152.74 42.11 C100.02 41.74, 48.98 42.15, -0.91 41.88 M0.06 42.99 C0.94 25.89, -1.75 12.82, -1.38 -1.59 M0.56 40.9 C-0.66 31.14, 0.15 19.72, 0.03 -0.38" stroke="#000000" stroke-width="1" fill="none"></path></g><g transform="translate(101.98659435036484 314.0505019520511) rotate(0 27.5 10.5)"><text x="27.5" y="15" font-family="Virgil, Segoe UI Emoji" font-size="16px" fill="#000000" text-anchor="middle" style="white-space: pre;" direction="ltr">Domain</text></g><g stroke-linecap="round" transform="translate(52.87029783955086 249.22187429015844) rotate(0 75.97246208635329 20.924618794970172)"><path d="M0.86 0.59 L153.72 1.59 L153.2 43.51 L1.69 42.73" stroke="none" stroke-width="0" fill="#82c91e"></path><path d="M0.8 -1.03 C56.24 -1.47, 111.87 0.49, 152.61 0.44 M-0.26 0.8 C48 -1.75, 95.78 -1.44, 152.64 -0.91 M153.78 0.06 C153.3 13.92, 150.88 23.93, 152.28 40.47 M150.98 0.56 C150.85 8.29, 152.24 18.32, 152.12 41.88 M151.53 40.05 C111.74 39.99, 71.7 43.04, -0.03 42.63 M151.42 42.79 C104.39 41, 58.25 39.66, 0.96 41.07 M0.55 41.63 C-1.62 29.34, 1.6 18.44, -0.56 -1.39 M0.21 41.15 C0.3 26.55, -0.28 10.79, -0.62 -0.71" stroke="#000000" stroke-width="1" fill="none"></path></g><g transform="translate(92.84275992590415 259.6464930851286) rotate(0 36 10.5)"><text x="36" y="15" font-family="Virgil, Segoe UI Emoji" font-size="16px" fill="#000000" text-anchor="middle" style="white-space: pre;" direction="ltr">Contract</text></g><g stroke-linecap="round" transform="translate(52.87029783955086 191.2767760887025) rotate(0 75.97246208635329 20.924618794970172)"><path d="M0.8 -1.33 L152.78 0.01 L152.9 43.44 L0.05 43.06" stroke="none" stroke-width="0" fill="#fa5252"></path><path d="M-0.51 1.61 C31.91 1.87, 64.1 -0.72, 150.26 -1.04 M0.91 -0.9 C60.81 -1.43, 119.68 -1.37, 152.3 0.28 M153.25 1.55 C150.98 10.71, 153.05 25.56, 150.96 42.27 M151.95 0.36 C151.57 8.93, 152.62 19.59, 152.83 42.64 M152.82 42.21 C96.79 42.96, 40.74 43.31, -1.69 43.21 M152.59 42.44 C102.38 41.45, 51.95 41.19, 0.21 41.06 M-0.82 41.1 C-0.82 24.53, -0.19 11.74, -0.97 -0.23 M-0.39 42.73 C0.22 29.11, 0.98 17.93, 0.04 0.12" stroke="#000000" stroke-width="1" fill="none"></path></g><g transform="translate(86.84275992590415 201.70139488367266) rotate(0 42 10.5)"><text x="42" y="15" font-family="Virgil, Segoe UI Emoji" font-size="16px" fill="#000000" text-anchor="middle" style="white-space: pre;" direction="ltr">Application</text></g><g transform="translate(86.28110417051039 145.76313765344116) rotate(0 45 13)"><text x="0" y="18" font-family="Virgil, Segoe UI Emoji" font-size="20px" fill="#000000" text-anchor="start" style="white-space: pre;" direction="ltr">Module A</text></g><g transform="translate(341.3765297101522 145.7631376534411) rotate(0 46 13)"><text x="0" y="18" font-family="Virgil, Segoe UI Emoji" font-size="20px" fill="#000000" text-anchor="start" style="white-space: pre;" direction="ltr">Module B</text></g><g transform="translate(598.9102994944011 144.47546880452) rotate(0 45 13)"><text x="0" y="18" font-family="Virgil, Segoe UI Emoji" font-size="20px" fill="#000000" text-anchor="start" style="white-space: pre;" direction="ltr">Module C</text></g><g stroke-linecap="round" transform="translate(312.65748810941136 300.2457524286626) rotate(0 75.97246208635329 20.924618794970172)"><path d="M-0.91 0.36 L150.83 -0.74 L152.98 42.83 L-1.96 40.97" stroke="none" stroke-width="0" fill="#be4bdb"></path><path d="M-1.9 1.31 C54.31 -1.3, 108.99 1.43, 150.57 0.23 M0.68 0.27 C51.06 -0.53, 100.68 0.57, 152.32 0.92 M149.95 1.6 C153.55 15.65, 153.28 34.5, 150.07 40.05 M152.7 -0.65 C150.74 8.81, 151.33 19.4, 151.9 41.92 M153.06 41.4 C94.86 44.88, 35.83 43.47, -1.46 43.51 M151.44 42.55 C113.89 40.08, 73.63 41, -0.04 41.51 M-2 39.89 C-1.87 27.61, 0.2 12.43, -0.78 -0.44 M-0.91 40.91 C-0.79 25.91, -0.37 11.92, 0.59 -0.71" stroke="#000000" stroke-width="1" fill="none"></path></g><g transform="translate(361.1299501957649 310.67037122363286) rotate(0 27.5 10.5)"><text x="27.5" y="15" font-family="Virgil, Segoe UI Emoji" font-size="16px" fill="#000000" text-anchor="middle" style="white-space: pre;" direction="ltr">Domain</text></g><g stroke-linecap="round" transform="translate(312.01365368495067 245.84174356174026) rotate(0 75.97246208635329 20.924618794970172)"><path d="M-1.12 -0.74 L152.98 0.98 L149.99 40.97 L1.16 41.29" stroke="none" stroke-width="0" fill="#82c91e"></path><path d="M-0.71 -1.39 C43.65 0.35, 88.04 -0.77, 152.6 1.86 M0.53 -0.24 C48.08 0.45, 97.31 0.52, 152.84 -0.4 M153.71 -0.65 C153.04 15.44, 149.65 25.28, 150.63 40.44 M151.04 -0.99 C151.94 9.76, 152.21 19.96, 152.73 40.99 M152.34 43.65 C92.99 41.91, 34.85 43.16, -0.9 42.72 M152.62 41.52 C119.88 43.5, 89.47 42.58, 0.36 41.7 M-1.94 41.68 C0.56 31.57, -0.36 23.45, 1.36 1.83 M-0.41 41.31 C0.39 26.06, 0.97 7.82, -0.45 0.18" stroke="#000000" stroke-width="1" fill="none"></path></g><g transform="translate(351.9861157713042 256.2663623567104) rotate(0 36 10.5)"><text x="36" y="15" font-family="Virgil, Segoe UI Emoji" font-size="16px" fill="#000000" text-anchor="middle" style="white-space: pre;" direction="ltr">Contract</text></g><g stroke-linecap="round" transform="translate(312.01365368495067 187.8966453602843) rotate(0 75.97246208635329 20.924618794970172)"><path d="M1.03 0.98 L149.99 -0.87 L153.1 41.29 L1.04 40.04" stroke="none" stroke-width="0" fill="#fa5252"></path><path d="M-1.06 1.34 C54.19 1.29, 111.78 2.91, 152.32 1.35 M-0.39 0.86 C50.02 1.29, 100.17 -0.04, 152.18 -1 M153.45 1.91 C150.44 14.11, 151 30.41, 150.7 43.35 M151.63 -0.19 C151.52 9.92, 152.35 18.84, 152.75 42.41 M150.81 42.25 C108.33 44.88, 66.73 44.09, -1.89 40.85 M151.1 42.44 C95.7 41.01, 39.89 41.2, -0.85 40.85 M0.14 40.56 C-0.37 32.96, 1.76 26.78, 1.96 -1.82 M0.01 42.72 C0.76 32.51, -0.28 24.77, -0.56 -0.37" stroke="#000000" stroke-width="1" fill="none"></path></g><g transform="translate(345.9861157713042 198.32126415525443) rotate(0 42 10.5)"><text x="42" y="15" font-family="Virgil, Segoe UI Emoji" font-size="16px" fill="#000000" text-anchor="middle" style="white-space: pre;" direction="ltr">Application</text></g><g stroke-linecap="round" transform="translate(567.6159201958176 290.5882360617533) rotate(0 75.97246208635329 20.924618794970172)"><path d="M1.38 0.25 L151.35 -1.25 L150.4 39.94 L-0.19 40.91" stroke="none" stroke-width="0" fill="#be4bdb"></path><path d="M-0.08 -1.62 C34.21 -1.52, 71.04 0.46, 152.74 0.19 M-0.22 0.15 C43.08 -0.31, 84.05 -0.73, 151.81 0.26 M153.84 1.63 C150.7 13.37, 150.36 23.92, 150.89 43.64 M151.94 0.9 C152.65 14.49, 151.85 30.83, 152.06 41.73 M153.03 42.78 C109.64 43.19, 66.2 42.16, -0.5 43.52 M151.36 41.92 C116.17 40.06, 79.63 40.45, 0.48 42.13 M-0.71 41.92 C0.62 28.4, 1.22 14.08, -1.08 -1.24 M-0.14 42.82 C-0.63 30.02, 0.37 18.02, 0.35 0.56" stroke="#000000" stroke-width="1" fill="none"></path></g><g transform="translate(616.0883822821706 301.01285485672355) rotate(0 27.5 10.5)"><text x="27.5" y="15" font-family="Virgil, Segoe UI Emoji" font-size="16px" fill="#000000" text-anchor="middle" style="white-space: pre;" direction="ltr">Domain</text></g><g stroke-linecap="round" transform="translate(566.9720857713569 236.18422719483095) rotate(0 75.97246208635329 20.924618794970172)"><path d="M-0.6 -1.25 L150.4 -1.91 L151.76 40.91 L-0.96 41.92" stroke="none" stroke-width="0" fill="#82c91e"></path><path d="M-1.98 -0.61 C53.4 2.6, 110.28 1.42, 151.5 -0.88 M0.84 0.13 C49.62 -0.52, 99.98 0.02, 152.03 -0.85 M151.06 0.45 C151.11 7.83, 151.29 21.27, 153.32 43.64 M152.27 -0.95 C151.47 11.88, 152.06 23.71, 151.75 42.62 M152.2 41.88 C92.61 41.56, 34.03 44.23, -1.26 42.26 M152.16 41.15 C116.92 41.64, 83.05 42.23, 0.35 42.41 M0.86 42.42 C1.6 28.31, -0.94 12.99, -0.44 -0.25 M-0.68 41.65 C0.38 31.87, 0.41 23.62, 0.69 0.13" stroke="#000000" stroke-width="1" fill="none"></path></g><g transform="translate(606.94454785771 246.60884598980107) rotate(0 36 10.5)"><text x="36" y="15" font-family="Virgil, Segoe UI Emoji" font-size="16px" fill="#000000" text-anchor="middle" style="white-space: pre;" direction="ltr">Contract</text></g><g stroke-linecap="round" transform="translate(566.9720857713569 178.239128993375) rotate(0 75.97246208635329 20.924618794970172)"><path d="M-1.54 -1.91 L151.76 -0.94 L150.98 41.92 L0.68 43.3" stroke="none" stroke-width="0" fill="#fa5252"></path><path d="M-1.34 1.37 C34.09 0.65, 66.17 -0.41, 152.53 -0.44 M-0.44 -0.28 C47.8 0.06, 95.94 -1.05, 151.27 0.95 M150.71 -1.92 C150.71 17.75, 153.14 33.71, 151.64 41.84 M151.47 -0.04 C152.19 16.18, 151.88 33.38, 152.81 42.39 M151.32 40.85 C98.76 43.54, 45.32 42.28, -1.43 40.67 M151.61 41.54 C105.8 41.06, 59.04 41.34, 0.3 41.5 M1.46 42.12 C-1.26 27.9, -0.62 16.18, -1.51 -0.28 M0.32 41.27 C0.64 25.77, 0.97 8.71, -0.3 -0.62" stroke="#000000" stroke-width="1" fill="none"></path></g><g transform="translate(600.94454785771 188.66374778834512) rotate(0 42 10.5)"><text x="42" y="15" font-family="Virgil, Segoe UI Emoji" font-size="16px" fill="#000000" text-anchor="middle" style="white-space: pre;" direction="ltr">Application</text></g><g stroke-linecap="round"><g transform="translate(309.2704693275639 211.79687209344252) rotate(0 -49.56017557332814 29.145316648521828)"><path d="M-1.31 -1.16 C-22.44 14, -46.92 28.72, -99.48 59.1 M0.36 0.87 C-30.93 17.48, -62.48 36.79, -98.89 59.45" stroke="#000000" stroke-width="1" fill="none"></path></g><g transform="translate(309.2704693275639 211.79687209344252) rotate(0 -49.56017557332814 29.145316648521828)"><path d="M-81.61 34.75 C-83.36 41.27, -88.5 47.3, -100.19 59.28 M-79.94 36.77 C-86.08 42.49, -92.41 50.47, -99.61 59.63" stroke="#000000" stroke-width="1" fill="none"></path></g><g transform="translate(309.2704693275639 211.79687209344252) rotate(0 -49.56017557332814 29.145316648521828)"><path d="M-70.82 52.21 C-75.18 54.48, -82.94 56.27, -100.19 59.28 M-69.16 54.23 C-78.75 54.36, -88.5 56.81, -99.61 59.63" stroke="#000000" stroke-width="1" fill="none"></path></g></g><mask></mask><g stroke-linecap="round"><g transform="translate(562.6320304498386 196.86663724159416) rotate(0 -47.627153374945806 36.31801866089398)"><path d="M-1.57 1.97 C-29.97 23.18, -60.44 43.89, -92.89 70.96 M-0.64 0.51 C-34.76 27.95, -69.19 53.14, -94.62 72.13" stroke="#000000" stroke-width="1" fill="none"></path></g><g transform="translate(562.6320304498386 196.86663724159416) rotate(0 -47.627153374945806 36.31801866089398)"><path d="M-79.7 49.04 C-83.36 55.46, -89.1 61.23, -93.4 71.15 M-78.77 47.57 C-84.15 57.32, -89.98 65.25, -95.13 72.32" stroke="#000000" stroke-width="1" fill="none"></path></g><g transform="translate(562.6320304498386 196.86663724159416) rotate(0 -47.627153374945806 36.31801866089398)"><path d="M-67.44 65.5 C-75.01 66.65, -84.65 67.18, -93.4 71.15 M-66.51 64.04 C-76.35 67.79, -86.7 69.66, -95.13 72.32" stroke="#000000" stroke-width="1" fill="none"></path></g></g><mask></mask><g stroke-linecap="round"><g transform="translate(468.0738763881325 201.84338219221024) rotate(0 47.01868411948368 28.257955629966204)"><path d="M-0.65 -1.62 C34.66 23.49, 73.17 45.53, 94.69 57.48 M-0.52 -0.48 C37.71 22.47, 73.52 44.84, 92.59 58.14" stroke="#000000" stroke-width="1" fill="none"></path></g><g transform="translate(468.0738763881325 201.84338219221024) rotate(0 47.01868411948368 28.257955629966204)"><path d="M62.79 49.42 C73.13 54.73, 86.92 57.2, 94.52 58.16 M62.92 50.56 C75.59 53.7, 86.02 55.96, 92.42 58.81" stroke="#000000" stroke-width="1" fill="none"></path></g><g transform="translate(468.0738763881325 201.84338219221024) rotate(0 47.01868411948368 28.257955629966204)"><path d="M74.17 32.35 C80.18 44.24, 89.55 53.35, 94.52 58.16 M74.3 33.49 C82.49 43.49, 88.37 52.56, 92.42 58.81" stroke="#000000" stroke-width="1" fill="none"></path></g></g><mask></mask><g stroke-linecap="round"><g transform="translate(211.99772711097603 208.1774212202671) rotate(0 46.75521844946775 29.744719633398205)"><path d="M-1.33 -0.36 C32.74 17.77, 62.75 35.88, 94.35 59.85 M-0.79 0.56 C33.11 20.4, 68.49 41.28, 94.84 57.28" stroke="#000000" stroke-width="1" fill="none"></path></g><g transform="translate(211.99772711097603 208.1774212202671) rotate(0 46.75521844946775 29.744719633398205)"><path d="M64.06 51.19 C76.46 52.62, 84.6 53.45, 93.73 59.22 M64.61 52.11 C75.26 53.53, 86.93 55.67, 94.22 56.66" stroke="#000000" stroke-width="1" fill="none"></path></g><g transform="translate(211.99772711097603 208.1774212202671) rotate(0 46.75521844946775 29.744719633398205)"><path d="M74.64 33.61 C83.47 40.96, 88.11 47.61, 93.73 59.22 M75.18 34.52 C81.89 42.3, 89.76 50.76, 94.22 56.66" stroke="#000000" stroke-width="1" fill="none"></path></g></g><mask></mask></svg>